# xmcd
#
# Track frame offsets:
# 150
# 12707
# 27554
# 40165
# 55650
# 69973
# 84794
#
# Disc length: 1417 seconds
#
#
# Revision: 1
# Processed by: cddbd v1.5.1PL0 Copyright (c) Steve Scherf et al.
# Submitted via: FreeRIP 2.90 
#
DISCID=4f058707
DTITLE=Mister Max - Fuori di Testa
DYEAR=2004
DGENRE=Folk/Rock
TTITLE0=Dragostea Din Tei
TTITLE1=Fuori dal Tunnel
TTITLE2=Nando
TTITLE3=Shut Up
TTITLE4=Cuando Volveras
TTITLE5=Bailando
TTITLE6=Puppo Mix
EXTD=
EXTT0=
EXTT1=
EXTT2=
EXTT3=
EXTT4=
EXTT5=
EXTT6=
PLAYORDER=
